<?xml version="1.0" standalone="no"?>
<!DOCTYPE svg PUBLIC "-//W3C//DTD SVG 20010904//EN"
 "http://www.w3.org/TR/2001/REC-SVG-20010904/DTD/svg10.dtd">
<svg version="1.0" xmlns="http://www.w3.org/2000/svg"
 width="1280.000000pt" height="640.000000pt" viewBox="0 0 1280.000000 640.000000"
 preserveAspectRatio="xMidYMid meet">
<metadata>
Created by potrace 1.15, written by Peter Selinger 2001-2017
</metadata>
<g transform="translate(0.000000,640.000000) scale(0.100000,-0.100000)"
fill="#000000" stroke="none">
<path d="M5825 4390 c-19 -15 -52 -31 -72 -35 -21 -3 -58 -13 -83 -22 -25 -9
-61 -19 -80 -23 -19 -5 -60 -17 -90 -28 -53 -20 -55 -22 -58 -62 -3 -40 -2
-41 23 -34 17 4 30 2 35 -6 13 -20 181 18 251 57 3 2 11 -8 17 -23 11 -23 16
-25 52 -19 32 5 40 4 40 -8 0 -13 5 -13 29 -4 22 8 36 8 55 -1 22 -10 26 -8
31 8 8 27 32 25 41 -2 6 -21 7 -21 21 5 15 29 33 36 33 13 0 -10 9 -14 27 -13
22 2 29 -3 31 -22 3 -20 7 -22 35 -16 79 16 99 16 180 -4 73 -18 93 -19 138
-10 49 11 84 9 156 -6 28 -6 32 -4 35 16 2 19 9 24 31 22 18 -1 27 3 27 13 0
23 18 16 33 -13 14 -26 15 -26 21 -5 9 27 36 29 43 3 4 -16 9 -17 33 -8 21 8
36 8 54 -1 22 -10 26 -9 26 4 0 13 7 14 39 9 39 -6 40 -5 60 34 20 38 23 40
46 29 14 -6 28 -22 32 -35 5 -21 10 -23 32 -18 54 15 103 15 124 0 49 -34 87
-9 87 57 0 33 -2 35 -72 63 -66 25 -77 27 -116 16 -26 -7 -50 -8 -60 -2 -9 5
-36 12 -59 16 -23 4 -58 19 -78 35 l-36 28 -252 -5 c-195 -4 -255 -8 -267 -19
-12 -12 -17 -11 -35 10 -20 24 -21 24 -272 29 l-253 5 -35 -28z m-90 -110 c8
-13 -5 -13 -25 0 -13 8 -13 10 2 10 9 0 20 -4 23 -10z"/>
<path d="M4480 4309 c-81 -12 -195 -21 -322 -23 -204 -5 -292 -19 -330 -53
-23 -21 -23 -28 5 -41 22 -10 21 -11 -6 -11 -15 -1 -44 -8 -65 -17 l-37 -16
30 -9 c17 -5 67 -8 112 -7 46 1 86 -1 89 -5 12 -12 -7 -25 -46 -32 -22 -4 -50
-15 -63 -25 -22 -17 -33 -18 -143 -8 -65 6 -168 12 -228 14 -71 2 -112 7 -117
15 -10 16 -90 5 -105 -15 -6 -9 -33 -26 -60 -38 -53 -24 -47 -24 -364 -13
-269 10 -523 -12 -757 -64 -51 -12 -113 -21 -137 -21 -40 0 -50 -5 -83 -41
-48 -51 -74 -65 -143 -73 -95 -12 -111 -17 -146 -48 -18 -16 -39 -28 -46 -25
-7 2 -30 -7 -51 -20 -22 -14 -88 -40 -149 -60 -87 -28 -112 -40 -120 -59 -12
-26 3 -54 28 -54 8 0 14 -8 14 -18 0 -35 30 -82 53 -82 35 0 67 -12 61 -21 -3
-5 0 -25 6 -45 15 -45 44 -43 48 4 2 17 4 32 5 32 1 0 24 -7 51 -15 31 -9 90
-15 157 -15 98 0 108 -2 114 -20 9 -29 54 -60 85 -60 33 0 92 23 109 43 16 20
5 60 -24 87 -23 21 -26 22 -49 7 -21 -14 -25 -15 -30 -1 -3 8 -11 12 -17 8 -8
-4 -8 -1 -1 12 15 28 11 94 -5 94 -7 0 -13 5 -13 12 0 8 48 10 184 5 143 -5
195 -3 228 8 24 7 59 16 79 19 20 4 67 28 105 54 67 46 69 48 72 95 3 42 6 47
27 47 22 0 44 -20 88 -80 18 -25 18 -23 13 68 l-6 92 30 0 c32 0 44 -15 71
-90 l16 -45 19 38 c22 47 38 43 42 -11 3 -39 5 -42 31 -42 47 0 119 26 160 59
21 17 43 31 49 31 5 0 13 12 16 26 4 14 12 24 19 21 7 -2 18 3 25 12 11 14 13
14 25 1 18 -23 64 -23 95 -1 22 16 51 20 167 24 91 3 141 9 143 16 11 34 34
41 130 41 68 1 113 6 151 19 54 19 55 19 80 0 15 -11 37 -28 50 -38 20 -15 22
-21 12 -38 -19 -36 -69 -59 -265 -123 -146 -48 -197 -61 -229 -57 -79 9 -318
-13 -382 -36 -41 -14 -94 -22 -169 -25 -105 -4 -112 -6 -191 -47 l-82 -43 33
-16 c18 -8 41 -27 50 -42 17 -25 18 -25 31 -8 11 16 13 13 13 -24 0 -39 2 -42
19 -32 29 15 33 12 21 -11 -22 -40 -7 -49 85 -49 l85 0 25 -40 25 -40 67 0
c63 0 65 -1 50 -18 -10 -10 -39 -29 -67 -42 l-50 -23 -67 31 c-68 31 -69 31
-185 24 l-117 -7 -7 52 c-5 44 -12 56 -45 82 -71 57 -125 64 -251 32 -89 -23
-152 -54 -227 -110 -29 -22 -77 -48 -105 -57 -28 -9 -63 -23 -77 -30 -35 -18
-69 -76 -70 -122 -1 -21 -4 -28 -6 -16 -4 19 -28 33 -55 34 -15 0 -8 -48 10
-70 15 -19 22 -21 40 -11 31 16 33 2 9 -66 -19 -54 -20 -67 -10 -106 19 -69
51 -115 119 -171 79 -65 193 -126 311 -165 128 -42 192 -51 384 -51 140 0 169
-3 180 -16 11 -13 27 -15 103 -9 94 7 168 19 199 30 13 6 17 2 17 -19 0 -14 5
-26 10 -26 6 0 10 15 10 33 l0 32 21 -43 c25 -50 69 -77 144 -87 28 -4 86 -17
130 -31 44 -13 106 -26 137 -30 l56 -7 -20 -39 c-24 -46 -36 -128 -19 -128 6
0 11 4 11 10 0 5 15 20 33 31 25 17 38 36 52 81 l18 58 58 0 c68 0 143 23 288
88 64 29 112 57 123 73 19 25 19 30 4 147 -9 67 -21 130 -27 140 -6 10 -51 48
-100 84 -48 36 -85 69 -82 72 13 12 99 5 121 -10 21 -14 23 -13 46 13 30 35
41 25 39 -33 -1 -40 0 -44 20 -40 12 3 60 7 106 11 47 3 91 10 97 16 16 13
249 -25 323 -53 l25 -9 -30 -18 c-66 -40 -134 -144 -134 -204 0 -40 10 -51 66
-67 l42 -12 -14 -57 c-7 -31 -13 -79 -14 -107 0 -92 79 -176 199 -210 31 -9
85 -25 121 -37 39 -12 92 -21 133 -21 60 -1 71 2 87 22 22 26 33 29 27 5 -3
-10 -8 -39 -12 -64 l-6 -47 128 -7 c144 -7 205 4 211 40 1 11 5 30 7 41 l5 22
62 -20 c76 -24 189 -20 363 12 61 11 153 25 204 30 75 8 100 15 118 32 13 12
23 27 23 34 0 10 6 11 26 4 14 -6 44 -10 66 -10 23 0 49 -7 59 -15 10 -10 51
-20 110 -26 51 -5 158 -20 238 -34 167 -29 246 -31 321 -9 60 18 65 14 76 -46
3 -19 7 -40 9 -47 8 -24 83 -34 210 -27 l124 7 -5 41 c-3 23 -7 50 -9 61 -4
20 1 20 163 21 145 1 174 4 223 23 113 43 179 118 179 202 0 42 -20 152 -35
191 -4 9 9 18 42 26 62 17 73 27 73 69 0 60 -68 164 -134 204 l-30 18 25 9
c33 13 106 28 226 48 l101 17 7 34 c7 37 5 36 39 23 35 -13 37 -60 3 -60 -32
0 -62 -24 -54 -43 4 -11 26 -17 84 -21 43 -4 92 -8 110 -11 31 -3 31 -3 30 40
-2 57 9 66 39 32 23 -27 24 -27 50 -11 24 16 94 21 115 8 5 -3 -31 -35 -80
-71 -49 -37 -94 -75 -100 -85 -6 -10 -18 -72 -27 -139 -19 -149 -16 -155 94
-206 162 -74 225 -95 303 -100 l77 -6 18 -57 c13 -43 26 -62 51 -79 18 -11 33
-26 33 -31 0 -6 5 -10 11 -10 17 0 5 82 -19 128 l-20 39 56 7 c31 4 93 17 137
30 44 14 103 27 130 31 94 13 154 65 156 137 0 26 2 29 8 13 5 -11 6 -26 4
-32 -3 -7 0 -13 6 -13 6 0 11 12 11 26 0 21 3 25 18 19 9 -4 44 -12 77 -18 34
-5 69 -18 82 -30 30 -27 105 -34 138 -13 14 9 25 25 25 35 0 17 13 19 203 24
171 4 213 8 272 27 42 13 93 21 128 20 51 -1 58 2 68 24 6 13 22 29 34 34 39
18 185 133 216 171 16 20 37 60 46 88 14 45 15 59 4 100 -7 27 -12 71 -12 100
2 73 -31 125 -96 148 -82 30 -126 53 -190 99 -74 53 -154 85 -248 99 -90 13
-132 5 -187 -39 -40 -30 -46 -41 -52 -84 l-7 -49 -162 1 c-109 1 -169 -2 -184
-10 -18 -10 -28 -8 -65 13 l-43 25 42 0 c39 0 45 4 68 40 l25 40 85 0 c92 0
107 9 85 49 -12 23 -8 26 21 11 17 -10 19 -7 19 32 0 37 2 40 13 24 13 -17 14
-17 31 8 9 15 32 34 50 42 l33 16 -82 43 c-79 41 -86 43 -191 47 -75 3 -128
11 -169 25 -52 18 -330 50 -361 41 -5 -1 -27 7 -49 19 -22 11 -118 46 -213 77
-197 64 -225 77 -248 111 -19 29 -10 46 35 65 22 9 34 9 51 0 48 -26 120 -40
207 -40 91 0 114 -8 125 -41 3 -8 52 -13 148 -15 127 -4 146 -6 165 -24 25
-23 74 -23 93 0 11 13 13 13 25 0 6 -9 20 -14 30 -12 13 3 17 -3 17 -24 0 -24
3 -26 31 -20 22 4 38 0 58 -15 29 -21 87 -38 133 -39 20 0 27 5 30 22 4 28 35
36 52 13 11 -15 14 -12 24 24 15 47 16 48 62 53 l35 3 -3 -75 -3 -75 26 33
c22 26 34 32 65 32 35 0 39 -3 42 -27 2 -22 19 -39 72 -75 38 -26 85 -50 105
-54 20 -3 55 -12 78 -20 33 -11 85 -12 234 -7 163 5 191 4 185 -8 -3 -8 -9
-22 -12 -31 -4 -10 -9 -18 -13 -18 -11 0 -10 -73 1 -94 7 -13 7 -16 -1 -12 -6
4 -14 0 -17 -8 -5 -14 -9 -13 -30 1 -23 15 -26 14 -49 -7 -29 -27 -40 -67 -24
-87 17 -20 76 -43 109 -43 31 0 76 31 85 60 6 18 16 20 108 20 95 0 137 6 195
24 18 6 22 4 22 -12 0 -17 -9 -20 -76 -24 -61 -4 -80 -9 -93 -25 -9 -12 -26
-26 -38 -32 -40 -20 -96 -99 -99 -139 -1 -20 -14 -57 -28 -82 -14 -25 -26 -56
-26 -69 0 -23 46 -75 96 -108 33 -21 129 -42 197 -43 57 0 57 0 57 -30 0 -28
3 -30 35 -30 20 0 54 9 75 20 43 22 50 43 31 94 -7 18 -6 27 3 35 21 18 27 80
11 111 -15 28 -33 40 -65 40 -21 0 -55 46 -40 55 15 9 12 89 -5 111 -16 21
-20 64 -6 64 12 0 34 67 26 80 -3 5 6 12 20 15 14 3 35 7 48 10 22 4 47 44 47
76 0 10 -9 24 -21 32 -19 14 -19 15 14 21 84 16 72 75 -20 101 -85 25 -163 55
-203 79 -19 11 -39 20 -43 18 -13 -4 -209 59 -257 83 -25 13 -62 41 -83 64
-33 35 -44 41 -79 41 -23 0 -107 13 -187 30 -203 41 -290 50 -571 57 -268 7
-341 -1 -361 -39 -9 -17 -18 -20 -55 -14 -62 8 -157 49 -144 62 27 27 -20 64
-81 64 -29 0 -33 -6 -31 -45 1 -19 -5 -20 -71 -16 -40 2 -115 -2 -167 -8 -184
-21 -220 -21 -220 -2 0 27 -33 51 -86 65 -82 21 -67 36 38 37 51 1 104 4 118
9 25 7 24 8 -12 24 -21 9 -41 16 -46 16 -5 0 -15 6 -21 14 -26 31 -129 48
-320 51 -124 2 -238 10 -341 25 -217 31 -329 26 -429 -19 -40 -18 -101 -37
-134 -41 -90 -13 -90 -25 0 -45 91 -21 162 -23 172 -6 4 6 15 9 24 5 13 -5 17
0 17 22 l0 27 24 -22 c23 -22 25 -22 35 -4 10 16 12 16 23 2 7 -9 19 -14 26
-11 7 2 28 -3 47 -12 26 -13 43 -14 74 -7 31 7 48 5 81 -10 46 -21 166 -27
172 -9 2 7 42 8 113 3 l110 -6 -148 -50 c-132 -44 -147 -51 -147 -72 0 -12 7
-28 15 -35 13 -10 15 -9 15 10 0 28 24 21 28 -8 2 -12 10 -22 18 -22 8 0 17
-7 20 -15 4 -8 16 -15 27 -15 15 0 18 -3 11 -10 -19 -19 -250 -12 -449 15
-280 37 -402 33 -518 -17 l-52 -23 112 -5 c118 -6 153 -19 112 -40 -17 -10
-55 -11 -149 -5 -69 5 -161 8 -205 7 -404 -7 -389 -5 -399 -28 -8 -19 -21 -22
-107 -28 -53 -3 -148 -19 -211 -35 -110 -28 -121 -29 -236 -20 -72 5 -166 21
-238 39 -66 17 -162 33 -215 36 -84 6 -97 9 -105 28 -10 23 5 21 -399 28 -44
1 -136 -2 -205 -7 -94 -6 -132 -5 -149 5 -41 21 -6 34 112 40 l112 5 -50 22
c-118 51 -267 54 -554 14 -123 -18 -416 -29 -359 -14 9 2 18 14 20 25 4 29 28
36 28 8 0 -19 2 -20 15 -10 13 11 22 60 11 60 -4 0 -296 102 -410 143 -62 23
-66 26 -47 36 16 9 21 9 21 0 0 -6 7 -8 16 -5 10 4 22 -1 29 -11 12 -16 32
-18 169 -18 86 0 156 -3 156 -7 0 -15 130 -8 162 8 23 12 47 15 84 11 35 -4
61 -1 80 9 15 8 35 13 43 12 9 -2 22 3 29 12 11 13 13 13 23 -3 10 -18 12 -18
35 4 l24 22 0 -27 c0 -22 4 -27 17 -22 9 4 20 1 24 -6 9 -14 93 -15 152 0 23
6 55 14 71 17 43 9 20 25 -51 35 -33 4 -94 23 -134 41 -68 30 -83 33 -194 35
-81 2 -160 -4 -245 -17z m5740 -384 c0 -32 -2 -35 -30 -35 -16 0 -30 4 -30 9
0 8 49 61 56 61 2 0 4 -16 4 -35z m-7610 -6 c0 -5 -7 -9 -15 -9 -8 0 -15 7
-15 15 0 9 6 12 15 9 8 -4 15 -10 15 -15z m1940 -161 c0 -19 1 -19 25 -4 33
22 35 21 35 -14 l0 -30 155 0 c85 0 155 -4 155 -8 0 -18 -54 -32 -166 -44
-131 -13 -174 -32 -174 -74 0 -25 2 -26 50 -22 28 1 50 2 50 1 0 -1 -21 -12
-47 -24 -37 -16 -78 -23 -178 -29 -173 -10 -235 -31 -333 -113 -40 -33 -68
-47 -110 -56 -103 -21 -153 -10 -118 25 25 24 10 34 -52 35 -31 0 -65 4 -75 8
-15 5 -11 10 21 24 55 24 77 50 63 76 -6 11 -11 32 -11 47 0 15 -8 36 -17 46
-15 17 -15 20 -1 34 14 14 16 12 23 -22 l7 -38 20 32 c24 38 38 41 38 8 0 -28
16 -36 70 -36 24 0 40 5 44 15 4 12 26 15 110 15 l104 0 21 36 c12 20 21 52
21 75 0 33 3 40 18 37 11 -2 18 -14 20 -35 3 -28 7 -31 49 -38 32 -5 55 -2 77
9 17 8 39 17 49 20 26 8 32 34 12 55 -16 18 -15 19 2 23 24 6 43 -10 43 -34z
m3757 -24 c10 -3 32 -12 49 -20 38 -19 124 -10 124 12 0 8 9 14 20 14 15 0 20
-7 20 -27 l0 -26 25 23 c32 30 34 6 3 -27 -21 -22 -21 -26 -7 -51 l15 -27 164
0 165 0 3 28 c4 35 17 34 39 -3 18 -31 31 -39 30 -17 -2 60 15 70 34 20 8 -21
6 -30 -11 -48 -11 -12 -20 -34 -20 -49 0 -15 -5 -37 -11 -49 -10 -18 -8 -24
16 -44 15 -13 26 -25 24 -26 -2 -2 -25 -13 -52 -26 -28 -13 -44 -27 -41 -33
11 -17 -136 0 -166 19 -14 9 -45 33 -70 54 -81 68 -183 99 -323 99 -107 0
-125 5 -120 34 8 41 -26 57 -153 72 -232 27 -246 54 -29 54 l155 0 0 30 c0 33
6 36 34 15 25 -19 37 -19 30 0 -4 8 0 22 7 31 12 14 14 14 21 -5 4 -12 16 -24
25 -27z m801 -86 c2 -12 -7 -20 -34 -27 -48 -13 -53 -7 -24 24 26 28 53 29 58
3z m-2670 -4 c36 -6 38 -19 6 -41 -17 -11 -26 -10 -64 10 -24 12 -46 27 -48
34 -3 12 11 11 106 -3z m-2711 0 c-3 -3 -12 -4 -19 -1 -8 3 -5 6 6 6 11 1 17
-2 13 -5z m1103 -34 c0 -20 -25 -38 -37 -26 -5 5 24 46 34 46 1 0 3 -9 3 -20z
m-60 -28 c0 -4 -14 -9 -31 -10 -19 -2 -28 2 -24 8 7 12 55 14 55 2z m1755
-217 c45 -10 91 -13 128 -9 57 7 57 6 57 -20 0 -21 5 -26 24 -26 13 0 43 -7
66 -15 50 -18 173 -10 191 11 16 20 27 17 54 -12 l25 -27 0 42 c0 56 17 51 50
-14 l24 -50 9 42 c4 23 15 44 24 47 22 9 51 -20 65 -65 7 -26 17 -39 32 -41
11 -2 22 -11 24 -20 3 -16 -6 -18 -86 -18 -76 0 -93 -3 -117 -22 -19 -15 -48
-23 -96 -27 -49 -5 -74 -13 -91 -28 -13 -11 -48 -32 -78 -47 -177 -83 -162
-104 73 -107 59 -1 107 -5 107 -9 0 -4 -11 -12 -25 -18 -36 -17 -112 -90 -148
-142 -37 -54 -44 -60 -80 -60 -16 0 -38 -5 -50 -11 -40 -21 -97 -82 -108 -118
-7 -20 -25 -52 -40 -72 -16 -20 -29 -42 -29 -48 0 -14 -116 -15 -125 -1 -3 6
-35 10 -71 10 -47 0 -64 4 -64 13 0 8 -9 22 -19 31 -11 10 -31 43 -46 74 -42
90 -101 142 -162 142 -36 0 -43 6 -80 60 -36 52 -112 125 -148 142 -14 6 -25
14 -25 18 0 4 53 8 118 9 138 2 182 8 182 26 0 14 -77 65 -137 90 -21 9 -48
26 -61 38 -17 16 -41 23 -91 28 -49 4 -77 12 -97 28 -24 19 -39 22 -111 20
-46 -1 -86 1 -90 4 -11 11 6 37 25 37 13 0 22 12 30 38 7 21 21 47 32 57 18
16 22 17 35 4 7 -8 17 -30 22 -48 l9 -35 24 49 c33 65 50 70 50 14 l0 -42 26
27 c30 30 37 31 53 12 20 -23 140 -30 197 -10 30 11 85 18 144 19 52 1 119 8
149 15 30 7 73 10 97 7 33 -3 44 -1 44 9 0 17 -1 17 85 -1z m2685 -185 c0 -41
-5 -46 -28 -32 -9 6 -10 16 -1 40 15 44 29 40 29 -8z m-316 15 c3 -8 1 -15 -4
-15 -6 0 -10 7 -10 15 0 8 2 15 4 15 2 0 6 -7 10 -15z m-5281 -9 c6 -15 -1
-26 -15 -26 -4 0 -8 9 -8 20 0 23 15 27 23 6z m5381 -25 c-8 -9 -22 12 -17 26
6 15 7 14 13 -3 4 -10 6 -21 4 -23z m66 4 c12 -15 11 -16 -16 -13 -22 2 -30 9
-32 26 -3 20 -1 22 16 13 10 -5 25 -17 32 -26z m212 -5 c-5 -33 -4 -32 -27
-24 -14 6 -13 9 6 30 12 13 23 24 24 24 1 0 0 -13 -3 -30z m-116 -7 c-10 -10
-19 5 -10 18 6 11 8 11 12 0 2 -7 1 -15 -2 -18z m-5616 7 c0 -5 -2 -10 -4 -10
-3 0 -8 5 -11 10 -3 6 -1 10 4 10 6 0 11 -4 11 -10z m1566 -51 l7 -40 30 30
c36 38 45 39 45 5 0 -34 12 -45 61 -51 25 -3 41 -11 41 -19 0 -22 38 -36 83
-29 23 4 55 2 71 -4 24 -10 26 -14 15 -27 -21 -25 -48 -36 -157 -60 -78 -18
-135 -24 -223 -24 -93 0 -120 -3 -126 -15 -5 -9 -17 -12 -31 -8 -22 5 -21 7
16 39 45 38 72 88 72 131 0 18 9 38 21 49 12 10 25 29 30 42 14 37 38 27 45
-19z m2667 -6 c9 -9 17 -29 17 -46 0 -43 27 -93 72 -131 l39 -33 -45 -12 c-72
-18 -235 -13 -344 9 -114 25 -145 35 -167 60 -16 17 -15 19 6 30 14 8 40 10
70 6 52 -7 89 5 89 28 0 8 16 16 41 19 49 6 62 17 62 51 0 34 13 33 47 -4 l28
-29 6 40 c6 39 8 41 34 34 15 -4 35 -14 45 -22z m-4203 -3 c16 -16 20 -17 20
-5 0 17 23 20 51 5 39 -22 64 -106 37 -128 -7 -5 -33 -13 -58 -17 -61 -10
-303 -98 -337 -123 l-28 -20 -17 99 c-9 54 -24 113 -32 130 -9 18 -16 33 -16
34 0 1 26 -2 58 -6 31 -4 92 -9 136 -12 72 -5 80 -4 101 17 17 17 27 20 34 13
8 -8 11 -5 11 11 0 27 14 28 40 2z m5899 -19 c68 5 128 12 133 15 11 7 10 1
-7 -33 -13 -26 -27 -89 -49 -224 l-6 -35 -56 26 c-47 23 -252 94 -344 119 -19
5 -26 14 -28 36 -3 38 30 93 60 99 110 21 123 21 148 4 23 -16 37 -17 149 -7z
m-5079 -100 c15 -29 13 -31 -22 -24 -42 8 -44 9 -28 28 17 21 37 19 50 -4z
m7080 -101 c-9 -17 -15 -19 -23 -10 -9 9 -7 15 7 26 25 18 31 12 16 -16z
m-5103 -616 c-3 -3 -12 -4 -19 -1 -8 3 -5 6 6 6 11 1 17 -2 13 -5z m-40 -10
c-3 -3 -12 -4 -19 -1 -8 3 -5 6 6 6 11 1 17 -2 13 -5z m133 -21 c0 -10 -4 -14
-8 -8 -4 6 -11 13 -16 18 -5 4 -2 7 7 7 10 0 17 -8 17 -17z m-1075 -99 c-8
-20 -15 -39 -15 -43 -1 -15 -40 43 -40 60 0 15 7 19 35 19 l35 0 -15 -36z
m1898 5 c-4 -16 -8 -17 -14 -7 -13 19 -11 28 5 28 9 0 12 -7 9 -21z m187 -8
c0 -10 -8 -29 -18 -41 l-18 -22 -16 41 -16 41 34 0 c27 0 34 -4 34 -19z"/>
<path d="M9230 4248 c-36 -19 -37 -53 -4 -75 24 -15 50 -18 171 -18 88 0 146
4 153 11 19 19 0 41 -52 64 -65 28 -229 39 -268 18z"/>
<path d="M3368 4230 c-53 -10 -116 -40 -123 -58 -12 -31 14 -37 159 -37 119 0
147 3 169 18 33 21 35 50 5 71 -24 17 -139 20 -210 6z"/>
<path d="M12431 3586 c-7 -9 -28 -16 -46 -16 -41 0 -85 -34 -85 -65 0 -33 59
-76 113 -82 24 -3 83 5 137 17 176 39 189 60 70 114 -97 44 -169 56 -189 32z"/>
<path d="M11863 3566 c-60 -28 -84 -66 -108 -168 -27 -117 14 -144 205 -134
126 6 172 17 208 50 18 16 23 28 19 53 -6 35 -106 184 -140 208 -34 24 -123
19 -184 -9z"/>
<path d="M241 3560 c-138 -50 -168 -79 -111 -107 47 -22 214 -55 257 -50 54 6
113 49 113 82 0 31 -44 65 -85 65 -18 0 -38 7 -45 15 -17 20 -64 18 -129 -5z"/>
<path d="M753 3555 c-34 -24 -134 -173 -140 -208 -4 -25 1 -37 19 -53 36 -33
82 -44 208 -50 191 -10 232 17 205 134 -24 102 -48 140 -108 168 -61 28 -150
33 -184 9z"/>
<path d="M11577 3393 c-9 -2 -15 -8 -12 -13 3 -5 1 -11 -5 -15 -16 -10 -12
-82 6 -99 19 -19 46 -20 91 -4 34 12 37 19 24 53 -5 11 -4 25 1 32 6 7 5 19
-2 32 -11 21 -55 27 -103 14z"/>
<path d="M1120 3359 c-7 -13 -8 -25 -2 -32 5 -7 6 -21 1 -32 -13 -34 -10 -41
24 -53 45 -16 72 -15 91 4 18 17 22 89 6 99 -6 4 -8 10 -5 15 6 10 -29 20 -72
20 -22 0 -36 -6 -43 -21z"/>
<path d="M1400 3329 c-6 -11 -9 -25 -7 -32 2 -7 -3 -20 -12 -31 -9 -10 -18
-43 -21 -74 -4 -51 -8 -57 -30 -62 -35 -7 -55 -21 -69 -48 -14 -26 -5 -86 15
-102 9 -9 10 -18 3 -36 -19 -51 -12 -72 31 -94 21 -11 55 -20 75 -20 32 0 35
2 35 30 0 30 0 30 58 30 56 1 158 20 184 36 39 23 92 72 105 97 13 26 12 31
-16 77 -17 27 -33 61 -37 75 -3 14 -28 46 -54 73 -94 92 -112 102 -195 102
-45 0 -56 -4 -65 -21z m-40 -429 c0 -19 -19 -20 -29 -1 -16 28 -14 33 9 21 11
-6 20 -15 20 -20z"/>
<path d="M957 3145 c-14 -100 -5 -129 27 -84 14 21 14 21 34 1 11 -11 24 -27
29 -36 6 -11 29 -18 74 -22 64 -6 66 -6 92 26 38 44 35 74 -7 94 -19 9 -40 16
-47 16 -7 0 -27 5 -45 12 -24 8 -45 9 -78 1 -26 -6 -46 -7 -46 -4 0 4 -6 15
-13 26 -13 16 -15 13 -20 -30z"/>
<path d="M11820 3148 l-13 -27 -51 20 c-62 23 -103 24 -156 3 -29 -12 -40 -22
-40 -38 0 -21 24 -64 44 -78 19 -13 121 -9 141 5 35 24 61 26 74 6 28 -46 40
4 22 96 l-8 40 -13 -27z"/>
<path d="M10980 3121 c0 -31 4 -40 22 -44 40 -11 51 19 22 61 -24 35 -44 28
-44 -17z"/>
<path d="M4490 2694 c-36 -48 -73 -101 -83 -118 -10 -17 -15 -22 -11 -11 17
48 15 82 -9 135 -14 30 -26 47 -26 37 -1 -10 -14 -50 -31 -89 -30 -70 -36
-102 -24 -132 8 -21 51 -20 63 1 8 14 12 15 25 4 14 -12 16 -11 10 4 -7 18 -3
18 81 -1 17 -4 24 7 48 84 18 55 27 104 25 131 l-3 42 -65 -87z"/>
<path d="M8240 2720 c0 -25 12 -85 27 -133 24 -76 31 -87 48 -83 84 19 88 19
81 1 -6 -15 -4 -16 10 -4 13 11 17 10 25 -4 12 -20 40 -22 57 -5 19 19 14 61
-18 136 -16 39 -30 79 -31 89 0 10 -12 -7 -26 -37 -24 -53 -26 -87 -9 -135 4
-11 0 -6 -10 10 -15 26 -123 174 -146 200 -4 5 -8 -10 -8 -35z"/>
</g>
</svg>
