<!-- Uploaded to: SVG Repo, www.svgrepo.com, Transformed by: SVG Repo Mixer Tools -->
<svg version="1.1" id="Uploaded to svgrepo.com" xmlns="http://www.w3.org/2000/svg" xmlns:xlink="http://www.w3.org/1999/xlink" 
	 width="800px" height="800px" viewBox="0 0 32 32" xml:space="preserve">
<style type="text/css">
	.stone_een{fill:#0B1719;}
</style>
<path class="stone_een" d="M22,1H11C7.134,1,4,4.134,4,8v2.556C4.591,10.212,5.268,10,6,10h1c2.206,0,4,1.794,4,4v1.451
	c0.743,0.232,2.692,0.757,5.1,0.757c3.761,0,6.077-1.112,6.1-1.124c0.248-0.121,0.547-0.02,0.669,0.229
	c0.122,0.248,0.021,0.546-0.227,0.668c-0.102,0.05-2.531,1.227-6.542,1.227c-3.266,0-5.675-0.891-5.775-0.928
	C10.129,16.207,10,16.02,10,15.812V14c0-1.654-1.346-3-3-3H6c-0.771,0-1.468,0.301-2,0.78v-0.015C3.387,12.315,3,13.113,3,14v3.022
	c0,1.708,0.398,3.393,1.162,4.921l1.732,3.463C5.964,25.545,6,25.698,6,25.853V28c0,1.657,1.343,3,3,3h14c1.657,0,3-1.343,3-3
	v-2.147c0-0.155,0.036-0.308,0.106-0.447l1.733-3.464C28.602,20.414,29,18.729,29,17.021V8C29,4.134,25.866,1,22,1z M18.757,28.071
	c0.237,0.142,0.314,0.449,0.172,0.686C18.835,28.914,18.669,29,18.5,29c-0.088,0-0.177-0.023-0.257-0.071L16,27.583l-2.243,1.346
	C13.677,28.977,13.588,29,13.5,29c-0.169,0-0.335-0.086-0.429-0.243c-0.143-0.237-0.065-0.544,0.172-0.686L15.029,27l-1.785-1.071
	c-0.237-0.142-0.314-0.449-0.172-0.686c0.144-0.237,0.451-0.312,0.686-0.171L16,26.417l2.243-1.346
	c0.235-0.141,0.543-0.066,0.686,0.171c0.143,0.237,0.065,0.544-0.172,0.686L16.971,27L18.757,28.071z M18.757,23.071
	c0.237,0.142,0.314,0.449,0.172,0.686C18.835,23.914,18.669,24,18.5,24c-0.088,0-0.177-0.023-0.257-0.071L16,22.583l-2.243,1.346
	C13.677,23.977,13.588,24,13.5,24c-0.169,0-0.335-0.086-0.429-0.243c-0.143-0.237-0.065-0.544,0.172-0.686L15.029,22l-1.785-1.071
	c-0.237-0.142-0.314-0.449-0.172-0.686c0.144-0.237,0.451-0.312,0.686-0.171L16,21.417l2.243-1.346
	c0.235-0.141,0.543-0.066,0.686,0.171c0.143,0.237,0.065,0.544-0.172,0.686L16.971,22L18.757,23.071z"/>
</svg>