<?xml version="1.0" encoding="iso-8859-1"?>
<!-- Uploaded to: SVG Repo, www.svgrepo.com, Transformed by: SVG Repo Mixer Tools -->
<!DOCTYPE svg PUBLIC "-//W3C//DTD SVG 1.1//EN" "http://www.w3.org/Graphics/SVG/1.1/DTD/svg11.dtd">
<svg fill="#000000" version="1.1" id="Capa_1" xmlns="http://www.w3.org/2000/svg" xmlns:xlink="http://www.w3.org/1999/xlink" 
	 width="800px" height="800px" viewBox="0 0 46.132 46.132"
	 xml:space="preserve">
<g>
	<g>
		<path d="M41.018,0.365c-0.238-0.342-0.688-0.461-1.064-0.282C35.202,2.349,28.245,7.011,23,16.148
			c3.04,4.616,5.675,10.559,7.057,18.125c0.181-7.561,1.681-23.859,10.856-32.812C41.212,1.171,41.255,0.707,41.018,0.365z"/>
		<path d="M9.673,6.905C9.531,6.811,9.369,6.766,9.207,6.766c-0.231,0-0.461,0.094-0.628,0.275c-0.282,0.307-0.3,0.773-0.044,1.101
			c9.251,11.848,6.688,32.297,5.946,37.004c-0.039,0.247,0.031,0.498,0.193,0.688c0.162,0.188,0.399,0.299,0.648,0.299h11.908
			c0.229,0,0.446-0.091,0.606-0.253s0.249-0.381,0.246-0.609C27.806,22.242,16.498,11.376,9.673,6.905z"/>
		<path d="M2.464,27.554c-0.165-0.108-0.385-0.081-0.519,0.064c-0.134,0.146-0.143,0.366-0.021,0.522
			c4.387,5.617,3.172,15.312,2.819,17.543C4.724,45.801,4.759,45.909,4.834,46c0.077,0.09,0.19,0.132,0.308,0.132h5.645
			c0.107,0,0.211-0.034,0.287-0.11s0.118-0.176,0.117-0.284C11.061,34.82,5.701,29.674,2.464,27.554z"/>
		<path d="M44.146,20.59c-0.186-0.201-0.486-0.239-0.716-0.089c-4.463,2.923-11.854,10.028-12.036,25.087
			c-0.003,0.147,0.059,0.281,0.161,0.388c0.105,0.106,0.246,0.156,0.397,0.156h7.785c0.164,0,0.317-0.062,0.424-0.187
			c0.104-0.124,0.15-0.282,0.126-0.443c-0.485-3.078-2.161-16.447,3.889-24.195C44.344,21.093,44.331,20.791,44.146,20.59z"/>
	</g>
</g>
</svg>