<?xml version="1.0" ?>
<!-- Uploaded to: SVG Repo, www.svgrepo.com, Transformed by: SVG Repo Mixer Tools -->
<svg fill="#000000" width="800px" height="800px" viewBox="0 0 512 512" xmlns="http://www.w3.org/2000/svg">
<g id="Snowflake">
<polygon points="230.639 241.344 230.639 270.656 256 285.309 281.361 270.656 281.361 241.344 256 226.691 230.639 241.344"/>
<path d="M452.5593,318.2155,409.824,329.6213l-28.5187-16.496L422.55,302.0666a13.1319,13.1319,0,1,0-6.8426-25.3567L349.016,294.5213l-1.8424-1.05V218.5327l1.8424-1.054L415.7069,235.29a11.5536,11.5536,0,0,0,3.4191.527,13.2788,13.2788,0,0,0,12.7255-9.8291,13.1119,13.1119,0,0,0-9.302-16.0589l-41.2442-11.0544,28.5187-16.496,42.7353,11.4058a11.4575,11.4575,0,0,0,3.4234.437,13.1174,13.1174,0,0,0,3.3335-25.7937L424.1305,158.95l9.3877-35.2756a13.1228,13.1228,0,1,0-25.3609-6.757l-11.4958,42.6453-28.5187,16.496,11.0587-41.24a13.1644,13.1644,0,1,0-25.4467-6.7569l-17.9013,66.6008-1.8424,1.0541-64.8485-37.3838v-2.1937l48.79-48.7895a13.1536,13.1536,0,0,0-18.6041-18.6l-30.1855,30.1855V85.9394l31.24-31.24a13.1536,13.1536,0,1,0-18.6041-18.6L256,61.8981,230.2022,36.1a13.1536,13.1536,0,0,0-18.6041,18.6l31.24,31.24v32.9962L212.6522,88.75a13.1536,13.1536,0,1,0-18.6041,18.6l48.79,48.7895v2.1937l-64.8484,37.3838-1.8424-1.0541L158.2454,128.062a13.1643,13.1643,0,1,0-25.4466,6.7569l11.0544,41.24-6.23-3.5948-22.2888-12.9012-11.4058-42.6453a13.1643,13.1643,0,0,0-25.4466,6.757L87.87,158.95l-35.1857,9.3877a13.1667,13.1667,0,0,0,3.3335,25.8837,11.475,11.475,0,0,0,3.4234-.437l42.731-11.4058,22.2888,12.8968,6.23,3.5992-41.24,11.0544a13.1086,13.1086,0,0,0-9.302,16.0589,13.2787,13.2787,0,0,0,12.7255,9.8291,11.5536,11.5536,0,0,0,3.4191-.527l66.6909-17.8114,1.8424,1.054v74.9389l-1.8424,1.05L96.2934,276.62a13.2924,13.2924,0,0,0-16.1446,9.392,13.1041,13.1041,0,0,0,9.302,16.0546l41.24,11.0587-28.5187,16.496L59.441,318.2155a13.1228,13.1228,0,0,0-6.7569,25.361L87.87,353.05l-9.3877,35.19a13.0879,13.0879,0,0,0,9.302,16.1447,11.43,11.43,0,0,0,3.4191.437,13.092,13.092,0,0,0,12.64-9.739l11.4915-42.6453,28.5187-16.496-11.0544,41.24a13.1067,13.1067,0,0,0,9.302,16.059,11.5608,11.5608,0,0,0,3.4235.527,13.2774,13.2774,0,0,0,12.7211-9.8291l17.9014-66.6008,1.8424-1.0541,64.8484,37.3838v2.1937l-48.79,48.79a13.1536,13.1536,0,1,0,18.6041,18.6l30.1854-30.1855v32.9962L211.5981,457.3a13.1536,13.1536,0,1,0,18.6041,18.6L256,450.1019l25.798,25.798a13.1371,13.1371,0,0,0,18.6041,0,13.081,13.081,0,0,0,0-18.6l-31.24-31.2395V393.0644L299.3481,423.25a13.1371,13.1371,0,0,0,18.6041,0,13.081,13.081,0,0,0,0-18.6l-48.79-48.79v-2.1937l64.8485-37.3838,1.8424,1.0541,17.9013,66.6008a13.27,13.27,0,0,0,12.7212,9.8291A15.36,15.36,0,0,0,369.9,393.33a13.2453,13.2453,0,0,0,9.302-16.1489l-11.0587-41.24,28.5187,16.496,11.4958,42.6453a13.0132,13.0132,0,0,0,12.6355,9.739,11.44,11.44,0,0,0,3.4234-.437,13.04,13.04,0,0,0,9.302-16.059L424.1305,353.05l35.1857-9.4734a13.1228,13.1228,0,0,0-6.7569-25.361ZM307.6861,278.2867a12.9077,12.9077,0,0,1-6.5813,11.32l-38.5234,22.2888a13.2063,13.2063,0,0,1-13.1625,0l-38.5235-22.2888a12.9078,12.9078,0,0,1-6.5812-11.32V233.709a13.1567,13.1567,0,0,1,6.5812-11.4058l38.5235-22.1988a13.0748,13.0748,0,0,1,13.1625,0l38.5234,22.1988a13.1566,13.1566,0,0,1,6.5813,11.4058Z"/>
</g>
</svg>