<?xml version="1.0" encoding="iso-8859-1"?>
<!-- Uploaded to: SVG Repo, www.svgrepo.com, Transformed by: SVG Repo Mixer Tools -->
<!DOCTYPE svg PUBLIC "-//W3C//DTD SVG 1.1//EN" "http://www.w3.org/Graphics/SVG/1.1/DTD/svg11.dtd">
<svg fill="#000000" height="800px" width="800px" version="1.1" id="Capa_1" xmlns="http://www.w3.org/2000/svg" xmlns:xlink="http://www.w3.org/1999/xlink" 
	 viewBox="0 0 297 297" xml:space="preserve">
<g>
	<path d="M148.5,38.098c-40.931,0-74.231,33.3-74.231,74.23c0,5.887,4.774,10.66,10.66,10.66c5.888,0,10.661-4.773,10.661-10.66
		c0-29.174,23.735-52.91,52.909-52.91c5.887,0,10.66-4.772,10.66-10.66C159.16,42.871,154.387,38.098,148.5,38.098z"/>
	<path d="M282.079,284.249l-17.59-87.946c-0.996-4.983-5.371-8.57-10.453-8.57h-22.362c18.104-19.948,29.154-46.407,29.154-75.404
		C260.828,50.391,210.437,0,148.5,0S36.172,50.391,36.172,112.328c0,28.997,11.051,55.456,29.154,75.404H42.964
		c-5.081,0-9.457,3.587-10.453,8.57l-17.59,87.946c-0.626,3.132,0.185,6.38,2.209,8.85c2.025,2.47,5.051,3.901,8.244,3.901h246.252
		c3.193,0,6.219-1.432,8.244-3.901C281.894,290.629,282.706,287.381,282.079,284.249z M57.492,112.328
		c0-50.183,40.825-91.008,91.008-91.008s91.008,40.825,91.008,91.008c0,31.358-15.954,59.038-40.16,75.404H97.652
		C73.446,171.366,57.492,143.686,57.492,112.328z M38.378,275.68l13.325-66.627h193.594l13.325,66.627H38.378z"/>
</g>
</svg>