<!-- Uploaded to: SVG Repo, www.svgrepo.com, Transformed by: SVG Repo Mixer Tools -->
<svg fill="#000000" width="800px" height="800px" viewBox="-1.82 0 15.99 15.99" xmlns="http://www.w3.org/2000/svg">
<g id="Layer_2" data-name="Layer 2">
<g id="Layer_1-2" data-name="Layer 1">
<path d="M11.08,6.06,6.58.19a.52.52,0,0,0-.8,0L1.28,6.06a6.18,6.18,0,1,0,10.44,6.49A6.13,6.13,0,0,0,11.08,6.06Zm-.26,6A5.07,5.07,0,0,1,6.18,15,5.08,5.08,0,0,1,1.54,12.1a5.08,5.08,0,0,1,.53-5.43L6.18,1.31l4.11,5.36A5.08,5.08,0,0,1,10.82,12.1ZM10.18,10a4,4,0,0,1-4,4,.5.5,0,0,1,0-1,3,3,0,0,0,3-3,.5.5,0,0,1,1,0Z"/>
</g>
</g>
</svg>